<svg width="120" height="120" viewBox="0 0 120 120" fill="none" xmlns="http://www.w3.org/2000/svg">
<g>
<path d="M51.3193 52.5277C45.9051 77.0481 28.9624 61.7568 23.9245 94.6493C23.59 98.1821 23.9663 102.781 24.0604 105.655C24.0604 105.917 24.0813 106.167 24.0813 106.429C23.9245 108.488 25.4296 109.617 26.3807 111.32C26.5689 111.885 26.757 112.261 26.757 112.825C26.0044 115.282 23.3601 115.47 21.2906 115.282C18.2699 114.717 16.3886 111.885 15.6778 109.073C15.542 108.634 15.427 108.174 15.312 107.714C14.0996 102.572 13.901 94.712 13.9741 91.0643C14.2459 78.3651 16.0123 44.8246 23.7573 41.3127C32.8505 34.6966 53.5456 46.5074 51.3193 52.5382V52.5277Z" fill="#252525"/>
<path d="M112.976 25.6633C120.115 23.2593 122.258 10.8737 113.875 11.0723L99.5036 9.69263C99.5036 9.69263 85.2261 20.2596 91.905 25.1302C93.8595 26.5517 91.3615 32.9588 112.976 25.6737V25.6633Z" fill="#E99457"/>
<path d="M91.0688 65.5271C91.0688 65.5271 89.6996 93.5072 89.2188 105.997C89.2188 106.238 89.1979 106.478 89.1874 106.718C89.1874 109.175 91.8318 111.255 90.7029 113.7C89.5741 115.78 86.5535 115.394 84.6617 114.077C82.5817 112.383 82.3936 109.739 82.1114 107.492C82.0591 107.147 81.9964 106.802 81.9441 106.436C79.8433 92.1484 78.6099 57.1865 80.9512 52.3367C92.6366 27.5341 91.0583 65.5167 91.0583 65.5167L91.0688 65.5271Z" fill="#252525"/>
<path d="M51.2885 56.9869C51.9052 65.1709 64.3535 80.6085 73.9276 79.8977C83.5017 79.1765 91.4347 74.2641 94.7376 59.5268C100.173 38.0897 92.4486 19.6524 82.8745 20.3631C77.7739 31.1496 50.6718 48.803 51.2885 56.9869Z" fill="#E99457"/>
<path d="M78.0242 77.2974C56.9425 85.3246 42.5814 64.0129 22.5135 72.0401L25.8267 38.4891C25.8267 38.4891 68.0948 41.7293 73.8329 29.6258L78.0242 77.3079V77.2974Z" fill="#E99457"/>
<path d="M81.3587 71.6908C81.3587 71.6908 81.9335 96.4829 82.2366 109.078C82.2366 109.328 82.2471 109.569 82.2575 109.809C82.1844 110.165 82.1739 110.499 82.2053 110.813C82.2366 111.126 82.3203 111.429 82.4352 111.722C83.355 113.771 86.3756 116.791 83.355 118.484C79.3937 120.366 75.8086 117.356 74.3872 113.718C74.2931 113.457 74.1886 113.175 74.084 112.872C70.1959 101.186 62.7018 61.7823 65.5134 56.4099C94.5805 33.2483 81.3587 71.6908 81.3587 71.6908Z" fill="#E99457"/>
<path d="M39.54 56.5583C26.4541 87.653 14.9464 63.0281 10.2221 99.2652C9.79352 102.202 9.65765 105.024 9.59493 107.554C9.59493 107.836 9.58448 108.118 9.57403 108.39C9.58448 111.316 13.3577 113.396 12.2288 116.417C11.9466 117.075 11.4868 117.598 10.9119 117.974C10.6192 118.162 10.3057 118.319 9.97121 118.455C5.0692 120.566 1.10788 116.417 0.919744 111.651C0.846579 111.358 0.783867 111.076 0.710703 110.794C0.668895 110.553 0.627087 110.303 0.585278 110.062C-0.188172 104.867 -0.0731999 97.3107 0.188101 93.757C1.12878 80.807 3.08332 48.1967 11.0164 45.0611C20.4546 38.8317 42.0903 50.538 39.54 56.5583Z" fill="#E99457"/>
<path d="M16.5039 49.9675C16.5039 49.9675 -2.3725 36.4322 11.7587 26.3773C18.0299 21.9143 18.9601 28.0183 16.044 29.0112C8.33039 31.6451 9.32333 39.4423 15.814 41.6477" fill="#E99457"/>
<path d="M66.4124 79.1413C66.1929 79.1413 66.0048 78.995 65.9525 78.7755C65.2836 75.9012 65.315 69.8286 65.315 69.5777C65.315 69.3164 65.524 69.1074 65.7853 69.1074C66.0466 69.1074 66.2556 69.3164 66.2556 69.5777C66.2556 69.6404 66.2243 75.7862 66.8723 78.556C66.935 78.8069 66.7678 79.0682 66.5169 79.1204C66.4856 79.1204 66.4438 79.1309 66.4124 79.1309V79.1413Z" fill="#252525"/>
<path d="M111.283 21.6689C109.297 30.365 105.67 25.9438 102.315 30.3023C100.862 32.1941 98.751 38.3712 98.5315 40.7438C91.8213 113.877 50.5671 54.206 54.4239 40.2526C70.3006 37.8382 72.5791 32.8421 73.0181 29.5707C74.6591 17.3523 76.2582 -0.740142 95.4795 2.3432C103.12 3.56608 112.663 14.0181 111.283 21.6689Z" fill="#E99457"/>
<path d="M114.609 12.5426L112.812 12.5909C111.017 12.6391 109.601 14.1307 109.65 15.9224C109.698 17.7141 111.192 19.1275 112.986 19.0792L114.783 19.0309C116.578 18.9827 117.994 17.4911 117.946 15.6994C117.897 13.9077 116.403 12.4943 114.609 12.5426Z" fill="#252525"/>
<path d="M105.242 10.3077C105.242 10.3077 102.817 13.0983 99.8798 13.0565C96.9427 13.0147 94.591 10.1613 94.591 10.1613C94.591 10.1613 97.0159 7.37064 99.9529 7.41245C102.89 7.45426 105.242 10.3077 105.242 10.3077Z" fill="white"/>
<path d="M98.7507 13.2023C100.356 13.2023 101.656 11.9014 101.656 10.2967C101.656 8.69193 100.356 7.39102 98.7507 7.39102C97.146 7.39102 95.8451 8.69193 95.8451 10.2967C95.8451 11.9014 97.146 13.2023 98.7507 13.2023Z" fill="#252525"/>
<path d="M83.5849 21.4121C86.0151 21.4121 87.9852 19.442 87.9852 17.0118C87.9852 14.5816 86.0151 12.6115 83.5849 12.6115C81.1547 12.6115 79.1846 14.5816 79.1846 17.0118C79.1846 19.442 81.1547 21.4121 83.5849 21.4121Z" fill="#E15D59"/>
<path d="M94.4551 12.8055C94.4551 12.8055 92.0302 15.5962 89.0932 15.5544C86.1457 15.5126 83.8044 12.6592 83.8044 12.6592C83.8044 12.6592 86.2293 9.86851 89.1663 9.91032C92.1034 9.95212 94.4551 12.8055 94.4551 12.8055Z" fill="white"/>
<path d="M87.9644 15.7135C89.5691 15.7135 90.8701 14.4126 90.8701 12.8079C90.8701 11.2031 89.5691 9.90222 87.9644 9.90222C86.3596 9.90222 85.0587 11.2031 85.0587 12.8079C85.0587 14.4126 86.3596 15.7135 87.9644 15.7135Z" fill="#252525"/>
<path d="M110.06 22.4529C108.116 22.4529 106.412 21.0315 106.109 19.056C106.046 18.6484 106.329 18.2617 106.747 18.199C107.154 18.1363 107.541 18.4185 107.604 18.8365C107.813 20.1953 109.077 21.1255 110.436 20.9269C110.844 20.8642 111.231 21.1464 111.293 21.5645C111.356 21.9721 111.074 22.3589 110.656 22.4216C110.457 22.4529 110.259 22.4634 110.06 22.4634V22.4529Z" fill="#252525"/>
<path d="M78.8918 8.38559C61.8968 15.4093 61.3638 22.1509 64.3844 27.032C67.405 31.913 75.9862 30.4184 79.1113 25.8404C83.4594 19.4647 78.8918 8.38559 78.8918 8.38559Z" fill="#252525"/>
<path d="M4.25393 58.7298C4.25393 70.4465 11.9571 70.5406 23.4439 70.5406C34.9411 70.5406 24.834 55.5106 45.4663 59.6078C45.4663 47.8911 36.1535 38.3902 24.6563 38.3902C13.1591 38.3902 4.25393 47.0131 4.25393 58.7298Z" fill="#E99457"/>
<path d="M30.3739 71.6746C30.2276 71.6746 30.0917 71.6119 29.9976 71.4865C29.8409 71.2774 29.8827 70.9848 30.0917 70.828C33.4677 68.2986 35.2341 61.5571 35.2446 61.4944C35.3073 61.2435 35.5686 61.0867 35.8194 61.1494C36.0703 61.2122 36.2271 61.4735 36.1643 61.7243C36.0912 62.017 34.3039 68.8526 30.6561 71.5805C30.5725 71.6433 30.468 71.6746 30.3739 71.6746Z" fill="#252525"/>
<path d="M59.7021 37.1041C46.219 38.8601 30.081 38.6928 28.8373 38.6092C26.0988 38.4315 25.6807 46.0092 32.2446 48.6431C40.0314 51.7683 37.1153 54.9666 45.1215 57.0465C59.7857 60.8511 71.6906 44.9327 59.7021 37.1041Z" fill="#D76F3A"/>
</g>
</svg>
